<?xml version="1.0" encoding="utf-8"?>
<!-- Generator: Adobe Illustrator 22.1.0, SVG Export Plug-In . SVG Version: 6.00 Build 0)  -->
<svg version="1.1" id="morph_xA0_Image_1_" xmlns="http://www.w3.org/2000/svg" xmlns:xlink="http://www.w3.org/1999/xlink" x="0px"
	 y="0px" viewBox="0 0 3486.77 3414.24" style="enable-background:new 0 0 3486.77 3414.24;" xml:space="preserve">
<style type="text/css">
	.st0{fill:url(#SVGID_1_);}
	.st1{fill:#211535;}
	.st2{fill:#D31A2D;}
	.st3{fill:#231637;}
	.st4{fill:none;stroke:#E90500;stroke-miterlimit:10;}
	.st5{fill:#291A3F;}
	.st6{fill:url(#SVGID_2_);}
	.st7{fill:#C11628;}
	.st8{opacity:0.12;fill:#FFFFFF;}
	.st9{opacity:0.1;fill:#FFFFFF;}
	.st10{opacity:0.05;fill:#FFFFFF;}
</style>
<linearGradient id="SVGID_1_" gradientUnits="userSpaceOnUse" x1="2146.418" y1="1959.6941" x2="3026.418" y2="2831.6941">
	<stop  offset="4.618056e-03" style="stop-color:#C11628"/>
	<stop  offset="0.2339" style="stop-color:#B21324"/>
	<stop  offset="0.4431" style="stop-color:#B42823"/>
	<stop  offset="0.4788" style="stop-color:#B42C23"/>
	<stop  offset="0.5327" style="stop-color:#B22623"/>
	<stop  offset="0.7286" style="stop-color:#AD1323"/>
	<stop  offset="1" style="stop-color:#990F1E"/>
</linearGradient>
<path class="st0" d="M2992.91,547.05c0,0,256.8,286.23,354.25,660.5c57.62,221.29,70.67,424.69,20.88,707.04
	c-14.98,84.97-28.33,169.78-55.79,271.96c0,0-44.58,229.6-52.39,288.68c-1.22,9.24-7.78,100.89-40.12,207.31
	c-22.08,72.65-55.97,146.3-109.23,228.49c-90.28,139.32-271.63,283.46-449.18,346.63c-475.59,169.22-924.64,0.14-1149.13-109.23
	c-87.49-42.62-156.04-78.02-156.04-78.02s-271.66,15.74-520.64-153.75c-212.19-144.44-419.98-484.48-431.98-697.47
	c0,0-79.5-223.49-128.99-296.99c-16.39-24.34-118.95-198.97-161.99-431.98c-38.83-210.2-30.38-317.61-3.83-503.46
	c18.9-132.33,78.68-316.54,184.65-424.81c55.52-56.72,131.98-110.31,205.17-155.68c117.54-72.88,240.88-129.52,354.98-160.98
	c0,0,62.69-17.75,154.49-39c126.17-29.21,321.91-65.45,617.97-75c0,0,122.99-4.5,163.49-10.5c18.94-2.81,304.19-59.41,541.47-16.5
	C2600.99,153.13,2833.42,332.28,2992.91,547.05z"/>
<path class="st1" d="M2494.44,3153.64c-308.98-75-535.47-181.49-986.95-90l610.47,220.49l292.17,34.09
	c82.14-10.91,166.25-30.34,251.21-60.57c91.92-32.71,184.85-87.11,265.64-151.32C2860.14,3146.15,2713.47,3206.8,2494.44,3153.64z"
	/>
<path class="st2" d="M2017.46,3201.63c-368.98-187.49-560.97-136.49-560.97-136.49c-38.99,0.85-70.37,3.67-95.62,7.68
	c16.87,8.66,77.32,39.54,151.34,75.6c195.08,95.04,559.74,235.17,964.03,159.2C2260.76,3314.71,2017.46,3201.63,2017.46,3201.63z"/>
<g>
	<path class="st1" d="M403.54,2219.18c0.37,6.6,0.93,13.33,1.68,20.17c1.62-25.74,3.14-58.3,3.73-95.46
		c-3.07,24.82-5.42,48.4-6.99,70.89C402.99,2217.64,403.54,2219.18,403.54,2219.18z"/>
	<path class="st1" d="M1008.01,206.28c-91.8,21.25-154.49,39-154.49,39c-15.95,4.4-32.09,9.31-48.36,14.67
		C600.99,362.69,461.1,492.78,372.88,621.12c-108.68,158.1-145.77,321.78-143,490c2.17,132.05,46.77,270.73,78,387
		c33.97,126.45,55.17,227.12,68.19,282.92c29.21,125.18,34.51,261.23,32.88,362.85c10.1-81.66,27.95-176.75,51.22-290.77
		c17.43-85.42,34.11-236.85,47.38-380.64c17.22-186.55,23.48-587.87,126.95-747.77c131.86-203.78,289.56-368.45,337.04-406.02
		c106.46-84.22,226.21-133.98,328.92-163.35C1176.09,170.38,1080.55,189.49,1008.01,206.28z"/>
</g>
<g>
	<path class="st3" d="M903.02,2802.65c-95.2-134.65-232.49-518.97-151.49-902.95c46.39-219.93,170.62-398.88,203.79-453.78
		c97.41-161.24,225.06-426.6,302.32-631.51c77.26-204.9,238.5-433.32,238.5-433.32c124.24-154.88,268.32-233.87,380.23-274.11
		c-48.73,6.74-80.94,12.93-86.89,13.81c-40.5,6-163.49,10.5-163.49,10.5c-1.8,0.06-3.57,0.12-5.36,0.18
		c-477.94,158.14-669.24,637.93-745.93,871.05c-104.26,316.94-309.04,819.62-309.04,819.62c-141.17,318.06-43.13,652.2,80.62,870
		c37.19,65.46,76.67,120.23,113.49,164.7c24.97,22.37,50.33,42.49,75.76,59.8c227.1,154.59,473.05,155.09,514.54,153.98
		c48.62-5.36,91.39-10.27,121.37-13.77C1227.43,3079.02,1031.36,2984.2,903.02,2802.65z"/>
	<path class="st3" d="M1471.43,3056.86c14.78-1.34,29.72-3.09,44.85-5.3C1516.28,3051.56,1499.43,3053.6,1471.43,3056.86z"/>
</g>
<path class="st1" d="M3391.43,1446.4c-39.49-202.45-121.6-338.78-136.54-368.66c-18-36-113.99-188.99-151.49-301.48
	c-25.65-76.95-77.97-173.54-108.47-226.91c-1.33-1.52-2.03-2.3-2.03-2.3c-73.15-98.5-161.65-189.5-262.07-263.88
	c-181.53-107.3-469.31-210.08-724.1-5.37c-351.04,282.03-273.03,543.05-537.05,975.1c0,0-124.2,210.04-192.02,447.04
	c-47.19,164.92-44.55,328.32-48,504.05c-7.68,390.73,184.63,690.21,624.06,693.07c0,0,294.57-13.68,525.23,0.09
	c301.48,18,423.04,29.28,575.88-15.09c210.86-61.22,289.79-340.04,315.77-472.61c2-11.38,4.17-23.45,6.42-35.88
	c3.51-21.74,4.84-34.56,4.84-34.56l1.09,2.18c14.17-76.73,29.3-154.64,29.3-154.64c27.46-102.18,40.8-186.99,55.79-271.96
	C3399.73,1734.86,3405.95,1587.12,3391.43,1446.4z"/>
<path class="st1" d="M202.91,1569.73C90.3,1369.79,88.49,1141.39,110.78,973.2c-0.73,4.57-1.42,9.1-2.05,13.56
	c-26.55,185.86-35,293.27,3.83,503.46c43.04,233.01,145.6,407.63,161.99,431.98c46.95,69.71,120.87,274.33,128.37,295.25
	C392.82,2052.68,352.44,1835.22,202.91,1569.73z"/>
<path class="st4" d="M1987.29,3306.57c-33.88-8.67-131.65-34.72-205.32-64.43c-91.15-36.76-200.12-94.47-278.75-130.35
	c-77.51-35.36-125.38-50.96-133.72-49.64c-8.1,1.27-13.81,4.51-17.85,8.44c2.97-0.09,4.53-0.18,4.53-0.18s68.55,35.4,156.04,78.02
	C1623.45,3202.62,1789.85,3271.48,1987.29,3306.57z"/>
<path class="st5" d="M1987.29,3306.57c-33.88-8.67-131.65-34.72-205.32-64.43c-91.15-36.76-200.12-94.47-278.75-130.35
	c-77.51-35.36-125.38-50.96-133.72-49.64c-8.1,1.27-13.81,4.51-17.85,8.44c2.97-0.09,4.53-0.18,4.53-0.18s68.55,35.4,156.04,78.02
	C1623.45,3202.62,1789.85,3271.48,1987.29,3306.57z"/>
<radialGradient id="SVGID_2_" cx="2342.3523" cy="1572.5665" r="631.0584" gradientTransform="matrix(0.9645 0.2641 -0.4488 1.6388 788.8877 -1623.1478)" gradientUnits="userSpaceOnUse">
	<stop  offset="0" style="stop-color:#2D1D45"/>
	<stop  offset="1" style="stop-color:#211535"/>
</radialGradient>
<path class="st6" d="M2790.81,583.85c0,0-506.7-596.73-754.7,11.27s-808,1600-312,1960s1496,456,1432-344
	S2969.51,932.57,2790.81,583.85z"/>
<path class="st7" d="M2752.39,528.99c0,0,269.86,12.61,325.35,421.19c55.49,408.58,78.18,620.43,90.79,658.26
	s68.1,269.86-27.74,469.1c-41.29,85.83-136.19,257.25-327.87,332.91c-205.05,80.94-426.38,24-373.27-194.2
	c0,0,52.96-168.98,22.7-355.61c-30.26-186.63-105.73-320.81-199.24-476.67c-60.53-100.88-56.11-248.19,5.04-433.8
	C2342.93,723.23,2515.31,481.07,2752.39,528.99z"/>
<path class="st8" d="M343.86,602.3c0,0,144.03,192.82,384.03,176.82s664-136,544,160s-336,552-212,664c0,0-320,336-208,700
	c0,0-104,24-292,8c0,0-188-164,96-564c0,0,140-228-80-116c-90.64,46.14-131.99,71.26-208-16c-108.49-124.54-235.06-402.64-228-532
	C139.88,1083.12,151.83,753.47,343.86,602.3z"/>
<path class="st9" d="M3347.16,1207.54c-97.44-374.26-354.25-660.5-354.25-660.5c-159.49-214.77-391.92-393.91-661.96-442.76
	c-237.28-42.92-522.53,13.69-541.47,16.5c-40.5,6-163.49,10.5-163.49,10.5c-296.06,9.55-491.8,45.79-617.97,75
	c-91.8,21.25-154.49,39-154.49,39c-114.1,31.46-237.44,88.1-354.98,160.98c-70.99,44.02-145.07,95.76-200.12,150.6l45.44,45.44v0v0
	l0,0l103.78,94.56c0,0,66.88-53.04,106.09-59.96c39.21-6.92,57.66-23.06,87.64-36.9s115.31-46.13,142.99-25.37
	c0,0,41.51,2.31,41.51,43.82s23.06,78.41,39.21,89.94c16.14,11.53,23.06,11.53,20.76,39.21l17.48,11.65
	c98.68-12.66,200.41-24.21,275.15-13.22c68.89-55.83,453.11-366.79,484.59-383.58c34.59-18.45,684.96-297.51,1127.77,221.4
	l96.86-43.82c0,0,87.71,77.99,235.24,500.46c152.21,435.89,182.2,345.94,209.87,601.94c0,0,4.61,235.24-99.17,470.48
	c0,0-184.5,48.43-345.94,115.31c-161.44,66.88-161.44,50.74-179.89,53.04c-18.45,2.31-124.54,29.98-186.81,57.66
	c-62.27,27.68-219.1,76.11-343.63,80.72c-124.54,4.61-461.25,13.84-537.36,20.76c-76.11,6.92-269.83,32.29-315.96,36.9
	s-129.15,39.21-237.55-20.76c-108.4-59.96-168.36-106.09-207.56-156.83c0,0-14.31,2.42-36.7,5.31
	c-29.77,5.34-127.59,19.27-282.33,6.1c0,0-2.73-2.39-7.03-7.27c-55.4-2.23-110.35-2.38-136.68-2.29
	c49.75,210.08,232.84,488.13,419.34,615.09c248.99,169.49,520.64,153.75,520.64,153.75s68.55,35.4,156.04,78.02
	c224.49,109.37,673.54,278.45,1149.13,109.23c177.55-63.17,358.89-207.31,449.18-346.63c53.26-82.19,87.15-155.84,109.23-228.49
	c32.35-106.42,38.9-198.07,40.12-207.31c7.8-59.07,52.39-288.68,52.39-288.68c27.46-102.18,40.8-186.99,55.79-271.96
	C3417.83,1632.23,3404.77,1428.83,3347.16,1207.54z"/>
<path class="st10" d="M3168.53,1608.44c-12.61-37.83-35.31-249.68-90.79-658.26c-2.86-21.07-6.31-41.07-10.24-60.09
	c-44.26-113.31-81.29-191.43-110.02-244.59c-35.44-41.86-73.22-68.73-106.59-85.94l-195.01,103.56c0,0,92,152,64,320s-80,288-12,452
	s4,220,80,388c58.83,130.06-21.96,360.7-61.46,458.24c17.3-0.77,52.95-8.28,161.25-53.14c72.8-30.16,150.29-56.57,213.44-76.48
	c16.71-28,29.75-53.57,39.67-74.2C3236.63,1878.3,3181.14,1646.27,3168.53,1608.44z"/>
</svg>
